<svg width="462" height="690" viewBox="0 0 462 690" fill="none" xmlns="http://www.w3.org/2000/svg">
<g filter="url(#filter0_d_209_6)">
<path d="M130.256 205.731C138.7 205.711 145.529 198.903 145.51 190.526C145.49 182.149 138.629 175.374 130.185 175.395C121.74 175.415 114.911 182.223 114.931 190.6C114.95 198.977 121.812 205.752 130.256 205.731Z" fill="white"/>
</g>
<g filter="url(#filter1_d_209_6)">
<path d="M431.654 111.282C440.429 111.261 447.527 104.194 447.506 95.4968C447.486 86.8 440.355 79.7672 431.579 79.7885C422.804 79.8098 415.707 86.8771 415.727 95.5739C415.747 104.271 422.878 111.303 431.654 111.282Z" fill="white"/>
</g>
<g filter="url(#filter2_d_209_6)">
<path d="M241.877 516.685C250.441 516.664 257.368 509.953 257.348 501.696C257.329 493.439 250.371 486.763 241.807 486.783C233.243 486.804 226.317 493.515 226.336 501.772C226.356 510.029 233.314 516.706 241.877 516.685Z" fill="white"/>
</g>
<path d="M126.41 205.224L70.753 335.162" stroke="white" stroke-width="1.72551"/>
<path d="M144.883 189.275L194.78 195.426" stroke="white" stroke-width="1.72551"/>
<path d="M140.125 180.505L212.648 122.207" stroke="white" stroke-width="1.72551"/>
<path d="M125.813 175.957L76.012 109.837" stroke="white" stroke-width="1.72551"/>
<path d="M117.637 182.79L0.859009 162.431" stroke="white" stroke-width="1.72551"/>
<path d="M115.143 190.788L7.69 211.931" stroke="white" stroke-width="1.72551"/>
<path d="M418.63 104.151L335.09 157.778" stroke="white" stroke-width="1.72551"/>
<path d="M436.52 81.585L469.11 1.02539" stroke="white" stroke-width="1.72551"/>
<path d="M443.88 104.15L469.63 126.836" stroke="white" stroke-width="1.72551"/>
<path d="M231.718 513.559L112.781 689.39" stroke="white" stroke-width="1.72551"/>
<path d="M257.828 671.338L243.637 516.654" stroke="white" stroke-width="1.72551"/>
<path d="M320.89 604.306L250.47 513.559" stroke="white" stroke-width="1.72551"/>
<defs>
<filter id="filter0_d_209_6" x="109.931" y="170.395" width="40.5792" height="40.3362" filterUnits="userSpaceOnUse" color-interpolation-filters="sRGB">
<feFlood flood-opacity="0" result="BackgroundImageFix"/>
<feColorMatrix in="SourceAlpha" type="matrix" values="0 0 0 0 0 0 0 0 0 0 0 0 0 0 0 0 0 0 127 0" result="hardAlpha"/>
<feOffset/>
<feGaussianBlur stdDeviation="2.5"/>
<feColorMatrix type="matrix" values="0 0 0 0 1 0 0 0 0 1 0 0 0 0 1 0 0 0 0.76 0"/>
<feBlend mode="normal" in2="BackgroundImageFix" result="effect1_dropShadow_209_6"/>
<feBlend mode="normal" in="SourceGraphic" in2="effect1_dropShadow_209_6" result="shape"/>
</filter>
<filter id="filter1_d_209_6" x="410.727" y="74.7885" width="41.7792" height="41.4938" filterUnits="userSpaceOnUse" color-interpolation-filters="sRGB">
<feFlood flood-opacity="0" result="BackgroundImageFix"/>
<feColorMatrix in="SourceAlpha" type="matrix" values="0 0 0 0 0 0 0 0 0 0 0 0 0 0 0 0 0 0 127 0" result="hardAlpha"/>
<feOffset/>
<feGaussianBlur stdDeviation="2.5"/>
<feColorMatrix type="matrix" values="0 0 0 0 1 0 0 0 0 1 0 0 0 0 1 0 0 0 0.76 0"/>
<feBlend mode="normal" in2="BackgroundImageFix" result="effect1_dropShadow_209_6"/>
<feBlend mode="normal" in="SourceGraphic" in2="effect1_dropShadow_209_6" result="shape"/>
</filter>
<filter id="filter2_d_209_6" x="221.336" y="481.783" width="41.0121" height="39.9015" filterUnits="userSpaceOnUse" color-interpolation-filters="sRGB">
<feFlood flood-opacity="0" result="BackgroundImageFix"/>
<feColorMatrix in="SourceAlpha" type="matrix" values="0 0 0 0 0 0 0 0 0 0 0 0 0 0 0 0 0 0 127 0" result="hardAlpha"/>
<feOffset/>
<feGaussianBlur stdDeviation="2.5"/>
<feColorMatrix type="matrix" values="0 0 0 0 1 0 0 0 0 1 0 0 0 0 1 0 0 0 0.76 0"/>
<feBlend mode="normal" in2="BackgroundImageFix" result="effect1_dropShadow_209_6"/>
<feBlend mode="normal" in="SourceGraphic" in2="effect1_dropShadow_209_6" result="shape"/>
</filter>
</defs>
</svg>
