<svg width="738" height="666" viewBox="0 0 738 666" fill="none" xmlns="http://www.w3.org/2000/svg">
<path d="M6.23357 665.003C9.60285 665.01 12.3411 662.056 12.3497 658.406C12.3583 654.755 9.63388 651.791 6.26461 651.784C2.89534 651.777 0.157054 654.731 0.148484 658.381C0.139913 662.032 2.8643 664.996 6.23357 665.003Z" fill="white"/>
<path d="M198.575 60.05C202.506 60.0578 205.701 56.6119 205.711 52.3532C205.721 48.0946 202.542 44.636 198.611 44.6282C194.681 44.6203 191.486 48.0663 191.476 52.3249C191.466 56.5836 194.644 60.0422 198.575 60.05Z" fill="white"/>
<path d="M298.353 309.289C302.284 309.297 305.479 305.851 305.489 301.592C305.499 297.334 302.32 293.875 298.389 293.867C294.459 293.859 291.264 297.305 291.254 301.564C291.244 305.823 294.422 309.281 298.353 309.289Z" fill="white"/>
<path d="M731.05 232.66C734.419 232.666 737.157 229.713 737.166 226.063C737.174 222.412 734.45 219.448 731.081 219.441C727.711 219.434 724.973 222.388 724.964 226.038C724.956 229.689 727.68 232.653 731.05 232.66Z" fill="white"/>
<path d="M398.706 425.844C398.695 430.407 395.272 434.099 391.061 434.091C386.849 434.082 383.444 430.377 383.454 425.814C383.465 421.251 386.888 417.559 391.1 417.567C395.311 417.576 398.717 421.281 398.706 425.844Z" fill="white"/>
<path d="M441.897 441.9C441.888 445.854 438.921 449.054 435.271 449.047C431.621 449.039 428.67 445.828 428.679 441.873C428.688 437.919 431.655 434.719 435.305 434.726C438.955 434.734 441.906 437.945 441.897 441.9Z" fill="white"/>
<path d="M500.834 375.357C504.203 375.364 506.941 372.41 506.95 368.76C506.958 365.109 504.234 362.145 500.865 362.138C497.495 362.131 494.757 365.085 494.748 368.735C494.74 372.386 497.464 375.35 500.834 375.357Z" fill="white"/>
<path d="M606.865 285.704C610.515 285.712 613.482 282.512 613.491 278.557C613.5 274.603 610.549 271.391 606.899 271.384C603.249 271.377 600.282 274.577 600.273 278.531C600.264 282.486 603.215 285.697 606.865 285.704Z" fill="white"/>
<path d="M635.545 221.492C639.195 221.5 642.162 218.3 642.171 214.345C642.18 210.391 639.229 207.179 635.579 207.172C631.929 207.165 628.962 210.365 628.953 214.319C628.944 218.274 631.895 221.485 635.545 221.492Z" fill="white"/>
<path d="M409.634 136.331C413.565 136.339 416.76 132.893 416.77 128.634C416.78 124.376 413.601 120.917 409.67 120.909C405.74 120.901 402.545 124.347 402.535 128.606C402.525 132.865 405.703 136.323 409.634 136.331Z" fill="white"/>
<path d="M552.424 132.355C556.074 132.363 559.041 129.163 559.05 125.208C559.059 121.254 556.108 118.042 552.458 118.035C548.808 118.028 545.841 121.228 545.832 125.182C545.823 129.137 548.774 132.348 552.424 132.355Z" fill="white"/>
<path d="M551.164 13.359C554.533 13.3657 557.271 10.412 557.28 6.76178C557.288 3.11154 554.564 0.147001 551.195 0.140302C547.825 0.133604 545.087 3.08728 545.078 6.73752C545.07 10.3878 547.794 13.3523 551.164 13.359Z" fill="white"/>
<path d="M546.717 157.46C549.525 157.465 551.807 155.004 551.814 151.962C551.821 148.92 549.551 146.45 546.743 146.444C543.935 146.438 541.653 148.9 541.646 151.942C541.639 154.984 543.909 157.454 546.717 157.46Z" fill="white"/>
<path d="M300.611 185.777C304.542 185.785 307.737 182.339 307.747 178.08C307.757 173.822 304.578 170.363 300.647 170.355C296.717 170.347 293.522 173.793 293.512 178.052C293.502 182.311 296.68 185.769 300.611 185.777Z" fill="white"/>
<path d="M620.975 350.382C624.625 350.39 627.592 347.19 627.601 343.235C627.611 339.281 624.659 336.069 621.009 336.062C617.359 336.055 614.392 339.255 614.383 343.209C614.374 347.164 617.325 350.375 620.975 350.382Z" fill="white"/>
<path d="M606.325 445.087C609.975 445.095 612.942 441.895 612.951 437.94C612.96 433.986 610.009 430.774 606.359 430.767C602.709 430.76 599.742 433.96 599.733 437.914C599.724 441.869 602.675 445.08 606.325 445.087Z" fill="white"/>
</svg>
